<?xml version="1.0" encoding="utf-8"?>
<svg viewBox="347.776 336.165 328.448 95.67" width="328.448px" height="95.67px" xmlns="http://www.w3.org/2000/svg" xmlns:xlink="http://www.w3.org/1999/xlink">
  <g id="logo-group">
    <image id="container" x="272" y="144" width="480" height="480" style="display: none;" transform="translate(0 0)" xlink:href=""/>
    <g id="logo-center" transform="translate(5.684341886080802e-14 0)">
      <image id="icon_container" style="display: none;" x="0" y="0" xlink:href=""/>
      <g id="slogan" style="font-style:normal;font-weight:400;font-size:32px;line-height:1;font-family:'Roboto Slab';font-variant-ligatures:none;text-align:center;text-anchor:middle" transform="translate(0 0)"/>
      <g id="title" style="font-style:normal;font-weight:700;font-size:72px;line-height:1;font-family:'Brandmark1 Bold';font-variant-ligatures:normal;text-align:center;text-anchor:middle" transform="translate(0 0)">
        <path id="path53490" style="font-style:normal;font-weight:700;font-size:72px;line-height:1;font-family:'Brandmark1 Bold';font-variant-ligatures:normal;text-align:center;text-anchor:middle" d="m 402.53075,3.096 c 6.696,0 13.032,-3.312 16.92,-8.928 l -8.928,-6.12 c -1.8,2.664 -4.824,4.248 -7.992,4.248 -5.4,0 -9.72,-4.392 -9.72,-9.72 0,-5.4 4.32,-9.72 9.72,-9.72 3.096,0 6.12,1.512 7.92,4.104 l 8.856,-6.192 c -1.872,-2.664 -4.392,-4.824 -7.2,-6.336 -2.952,-1.584 -6.264,-2.376 -9.576,-2.376 -2.808,0 -5.472,0.504 -7.992,1.584 -2.448,1.08 -4.68,2.52 -6.552,4.392 -1.872,1.944 -3.384,4.104 -4.392,6.552 -1.08,2.52 -1.584,5.256 -1.584,7.992 0,2.736 0.504,5.472 1.584,7.992 1.008,2.448 2.52,4.608 4.392,6.552 1.872,1.872 4.104,3.312 6.552,4.392 2.52,1.008 5.184,1.584 7.992,1.584 z" stroke-width="0" stroke-linejoin="miter" stroke-miterlimit="2" fill="#003093" stroke="#003093" transform="translate(0 301.105) translate(347.7760125 62.32999999999999) scale(1.25) translate(-382.01075 37.944)"/>
        <path id="path53492" style="font-style:normal;font-weight:700;font-size:72px;line-height:1;font-family:'Brandmark1 Bold';font-variant-ligatures:normal;text-align:center;text-anchor:middle" d="m 452.82162,-31.968 c -3.45599,-3.456 -7.99199,-5.328 -12.888,-5.328 -2.59199,0 -5.112,0.504 -7.416,1.584 v -19.8 l -10.8,3.6 v 31.248 c -0.072,0.576 -0.072,1.08 -0.072,1.656 h 0.072 V 2.52 h 10.8 v -22.608 c 0.504,-3.6 3.6,-6.408 7.416,-6.408 4.104,0 7.488,3.312 7.488,7.488 V 2.52 h 10.80001 v -21.528 c 0,-4.896 -1.94401,-9.504 -5.40001,-12.96 z" stroke-width="0" stroke-linejoin="miter" stroke-miterlimit="2" fill="#1e3894" stroke="#1e3894" transform="translate(0 301.105) translate(397.31960000000004 40.37) scale(1.25) translate(-421.64562 55.512)"/>
        <path id="path53494" style="font-style:normal;font-weight:700;font-size:72px;line-height:1;font-family:'Brandmark1 Bold';font-variant-ligatures:normal;text-align:center;text-anchor:middle" d="m 490.84325,-38.016 0.072,2.304 c -2.88,-1.44 -6.048,-2.232 -9.288,-2.232 -2.736,0 -5.472,0.504 -7.992,1.584 -2.448,1.08 -4.608,2.52 -6.552,4.392 -1.872,1.872 -3.312,4.104 -4.392,6.552 -1.008,2.52 -1.584,5.256 -1.584,7.992 0,2.736 0.576,5.472 1.584,7.992 1.08,2.448 2.52,4.608 4.392,6.552 1.944,1.872 4.104,3.312 6.552,4.392 2.52,1.008 5.256,1.584 7.992,1.584 3.24,0 6.408,-0.792 9.288,-2.232 l -0.072,1.656 h 10.8 v -40.536 z m -4.32,28.944 c -1.44,0.864 -3.168,1.368 -4.896,1.368 -5.328,0 -9.72,-4.392 -9.72,-9.72 0,-5.328 4.392,-9.72 9.72,-9.72 1.872,0 3.744,0.504 5.256,1.584 1.584,0.936 2.808,2.376 3.528,4.032 0.648,1.296 0.936,2.664 0.936,4.104 0,1.728 -0.432,3.384 -1.296,4.896 -0.864,1.44 -2.016,2.664 -3.528,3.456 z" stroke-width="0" stroke-linejoin="miter" stroke-miterlimit="2" fill="#3c3f95" stroke="#3c3f95" transform="translate(0 301.105) translate(446.64663750000005 62.24) scale(1.25) translate(-461.10725 38.016)"/>
        <path id="path53496" style="font-style:normal;font-weight:700;font-size:72px;line-height:1;font-family:'Brandmark1 Bold';font-variant-ligatures:normal;text-align:center;text-anchor:middle" d="m 507.36838,2.52 h 10.87199 v -41.544 l -10.87199,3.6 z" stroke-width="0" stroke-linejoin="miter" stroke-miterlimit="2" fill="#5a4796" stroke="#5a4796" transform="translate(0 301.105) translate(504.47305000000006 60.98) scale(1.25) translate(-507.36838 39.024)"/>
        <path id="path53498" style="font-style:normal;font-weight:700;font-size:72px;line-height:1;font-family:'Brandmark1 Bold';font-variant-ligatures:normal;text-align:center;text-anchor:middle" d="m 555.4745,-31.608 c -3.456,-3.384 -7.992,-5.256 -12.816,-5.256 -2.592,0 -5.04,0.504 -7.272,1.512 v -2.664 h -10.8 v 17.64 c -0.072,0.576 -0.072,1.08 -0.072,1.656 h 0.072 V 2.52 h 10.8 V -19.8 c 0.504,-3.528 3.528,-6.264 7.272,-6.264 4.032,0 7.344,3.312 7.344,7.344 V 2.52 h 10.8 v -21.24 c 0,-4.896 -1.944,-9.432 -5.328,-12.888 z" stroke-width="0" stroke-linejoin="miter" stroke-miterlimit="2" fill="#794e96" stroke="#794e96" transform="translate(0 301.105) translate(525.9057 62.24) scale(1.25) translate(-524.5145 38.016)"/>
        <path id="path53500" style="font-style:normal;font-weight:700;font-size:72px;line-height:1;font-family:'Brandmark1 Bold';font-variant-ligatures:normal;text-align:center;text-anchor:middle" d="m 566.43088,2.52 h 10.87199 v -41.544 l -10.87199,3.6 z" stroke-width="0" stroke-linejoin="miter" stroke-miterlimit="2" fill="#975697" stroke="#975697" transform="translate(0 301.105) translate(578.3011750000001 60.98) scale(1.25) translate(-566.43088 39.024)"/>
        <path id="path53502" style="font-style:normal;font-weight:700;font-size:72px;line-height:1;font-family:'Brandmark1 Bold';font-variant-ligatures:normal;text-align:center;text-anchor:middle" d="m 595.097,-37.44 v -0.072 c 0,-6.264 5.112,-11.448 11.448,-11.448 v -10.8 c -3.024,0 -5.976,0.648 -8.712,1.8 -2.664,1.08 -5.04,2.664 -7.056,4.752 -2.016,2.016 -3.672,4.392 -4.752,7.056 -1.152,2.736 -1.728,5.688 -1.728,8.64 V 2.52 h 10.8 v -29.88 h 11.448 v -10.08 z" stroke-width="0" stroke-linejoin="miter" stroke-miterlimit="2" fill="#b55d98" stroke="#b55d98" transform="translate(0 301.105) translate(600.6338250000001 35.059999999999995) scale(1.25) translate(-584.297 59.76)"/>
        <path id="path53504" style="font-style:normal;font-weight:700;font-size:72px;line-height:1;font-family:'Brandmark1 Bold';font-variant-ligatures:normal;text-align:center;text-anchor:middle" d="m 611.43313,16.776 h 11.44799 l 21.88801,-54.36 h -11.52 l -9.072,22.752 -9.648,-22.752 h -11.88 l 16.05599,36.288 z" stroke-width="0" stroke-linejoin="miter" stroke-miterlimit="2" fill="#d36599" stroke="#d36599" transform="translate(0 301.105) translate(623.5739874999999 62.779999999999994) scale(1.25) translate(-602.64913 37.584)"/>
      </g>
      <image id="icon" style="display: none;" x="0" y="0" xlink:href=""/>
    </g>
  </g>
</svg>